<svg width="1200" height="820" viewBox="0 0 1200 820" fill="none" xmlns="http://www.w3.org/2000/svg">
  <defs>
    <linearGradient id="one" x1="0" y1="0" x2="1" y2="1"><stop stop-color="#352160"/><stop offset="1" stop-color="#B76884"/></linearGradient>
    <linearGradient id="two" x1="0" y1="0" x2="1" y2="1"><stop stop-color="#184F65"/><stop offset="1" stop-color="#6ED6B2"/></linearGradient>
  </defs>
  <rect width="1200" height="820" rx="30" fill="#0C1020"/>
  <text x="68" y="86" fill="#F8F6FF" font-family="Arial, sans-serif" font-size="26" font-weight="700">PROJECT VAULT / 06 ACTIVE IDEAS</text>
  <text x="68" y="124" fill="#9BA5C7" font-family="Arial, sans-serif" font-size="18">Keep the good fragments close until they are ready to render.</text>
  <g transform="translate(68 184)">
    <rect width="340" height="474" rx="20" fill="#1A2035" stroke="#343C5B"/>
    <rect x="24" y="24" width="292" height="190" rx="14" fill="url(#one)"/>
    <path d="M24 158L128 78L190 126L254 68L316 144V214H24V158Z" fill="#171A3C" fill-opacity=".8"/>
    <text x="24" y="258" fill="#A995FF" font-family="Arial, sans-serif" font-size="14" font-weight="700">VIDEO / DRAFT</text>
    <text x="24" y="300" fill="#FFF" font-family="Arial, sans-serif" font-size="23" font-weight="700">Neon rain study</text>
    <text x="24" y="342" fill="#AEB6D0" font-family="Arial, sans-serif" font-size="17">The city exhales after midnight.</text>
    <rect x="24" y="400" width="112" height="34" rx="17" fill="#2C3555"/>
    <text x="80" y="423" text-anchor="middle" fill="#D5DCF4" font-family="Arial, sans-serif" font-size="14">in progress</text>
  </g>
  <g transform="translate(430 184)">
    <rect width="340" height="474" rx="20" fill="#1A2035" stroke="#343C5B"/>
    <rect x="24" y="24" width="292" height="190" rx="14" fill="url(#two)"/>
    <path d="M24 170L116 92L188 148L242 88L316 144V214H24V170Z" fill="#0B2632" fill-opacity=".82"/>
    <text x="24" y="258" fill="#62E4C1" font-family="Arial, sans-serif" font-size="14" font-weight="700">IMAGE / DRAFT</text>
    <text x="24" y="300" fill="#FFF" font-family="Arial, sans-serif" font-size="23" font-weight="700">Rooftop silence</text>
    <text x="24" y="342" fill="#AEB6D0" font-family="Arial, sans-serif" font-size="17">A still frame to anchor the scene.</text>
    <rect x="24" y="400" width="112" height="34" rx="17" fill="#244B52"/>
    <text x="80" y="423" text-anchor="middle" fill="#D5FFF2" font-family="Arial, sans-serif" font-size="14">ready</text>
  </g>
  <g transform="translate(792 184)">
    <rect width="340" height="474" rx="20" fill="#171C30" stroke="#343C5B" stroke-dasharray="8 10"/>
    <circle cx="170" cy="190" r="52" fill="#252E4D"/>
    <path d="M170 158V222M138 190H202" stroke="#A995FF" stroke-width="5" stroke-linecap="round"/>
    <text x="170" y="316" text-anchor="middle" fill="#F7F5FF" font-family="Arial, sans-serif" font-size="22" font-weight="700">New idea</text>
    <text x="170" y="356" text-anchor="middle" fill="#929DBD" font-family="Arial, sans-serif" font-size="16">Save a prompt before</text>
    <text x="170" y="382" text-anchor="middle" fill="#929DBD" font-family="Arial, sans-serif" font-size="16">you lose the spark.</text>
  </g>
</svg>